<svg aria-roledescription="er" viewBox="0 0 628.984375 686" style="max-width: 628.984px; background-color: white;" xmlns:xlink="http://www.w3.org/1999/xlink" xmlns="http://www.w3.org/2000/svg" width="100%" id="mermaid-0"><style>#mermaid-0{font-family:"trebuchet ms",verdana,arial,sans-serif;font-size:16px;fill:#000000;}#mermaid-0 .error-icon{fill:#552222;}#mermaid-0 .error-text{fill:#552222;stroke:#552222;}#mermaid-0 .edge-thickness-normal{stroke-width:2px;}#mermaid-0 .edge-thickness-thick{stroke-width:3.5px;}#mermaid-0 .edge-pattern-solid{stroke-dasharray:0;}#mermaid-0 .edge-pattern-dashed{stroke-dasharray:3;}#mermaid-0 .edge-pattern-dotted{stroke-dasharray:2;}#mermaid-0 .marker{fill:#000000;stroke:#000000;}#mermaid-0 .marker.cross{stroke:#000000;}#mermaid-0 svg{font-family:"trebuchet ms",verdana,arial,sans-serif;font-size:16px;}#mermaid-0 .entityBox{fill:#cde498;stroke:#13540c;}#mermaid-0 .attributeBoxOdd{fill:#ffffff;stroke:#13540c;}#mermaid-0 .attributeBoxEven{fill:#f2f2f2;stroke:#13540c;}#mermaid-0 .relationshipLabelBox{fill:hsl(78.1578947368, 58.4615384615%, 84.5098039216%);opacity:0.7;background-color:hsl(78.1578947368, 58.4615384615%, 84.5098039216%);}#mermaid-0 .relationshipLabelBox rect{opacity:0.5;}#mermaid-0 .relationshipLine{stroke:#000000;}#mermaid-0 .entityTitleText{text-anchor:middle;font-size:18px;fill:#000000;}#mermaid-0 :root{--mermaid-font-family:"trebuchet ms",verdana,arial,sans-serif;}</style><g/><defs><marker orient="auto" markerHeight="18" markerWidth="18" refY="9" refX="0" id="ONLY_ONE_START"><path d="M9,0 L9,18 M15,0 L15,18" fill="none" stroke="gray"/></marker></defs><defs><marker orient="auto" markerHeight="18" markerWidth="18" refY="9" refX="18" id="ONLY_ONE_END"><path d="M3,0 L3,18 M9,0 L9,18" fill="none" stroke="gray"/></marker></defs><defs><marker orient="auto" markerHeight="18" markerWidth="30" refY="9" refX="0" id="ZERO_OR_ONE_START"><circle r="6" cy="9" cx="21" fill="white" stroke="gray"/><path d="M9,0 L9,18" fill="none" stroke="gray"/></marker></defs><defs><marker orient="auto" markerHeight="18" markerWidth="30" refY="9" refX="30" id="ZERO_OR_ONE_END"><circle r="6" cy="9" cx="9" fill="white" stroke="gray"/><path d="M21,0 L21,18" fill="none" stroke="gray"/></marker></defs><defs><marker orient="auto" markerHeight="36" markerWidth="45" refY="18" refX="18" id="ONE_OR_MORE_START"><path d="M0,18 Q 18,0 36,18 Q 18,36 0,18 M42,9 L42,27" fill="none" stroke="gray"/></marker></defs><defs><marker orient="auto" markerHeight="36" markerWidth="45" refY="18" refX="27" id="ONE_OR_MORE_END"><path d="M3,9 L3,27 M9,18 Q27,0 45,18 Q27,36 9,18" fill="none" stroke="gray"/></marker></defs><defs><marker orient="auto" markerHeight="36" markerWidth="57" refY="18" refX="18" id="ZERO_OR_MORE_START"><circle r="6" cy="18" cx="48" fill="white" stroke="gray"/><path d="M0,18 Q18,0 36,18 Q18,36 0,18" fill="none" stroke="gray"/></marker></defs><defs><marker orient="auto" markerHeight="36" markerWidth="57" refY="18" refX="39" id="ZERO_OR_MORE_END"><circle r="6" cy="18" cx="9" fill="white" stroke="gray"/><path d="M21,18 Q39,0 57,18 Q39,36 21,18" fill="none" stroke="gray"/></marker></defs><path style="stroke: gray; fill: none;" marker-start="url(#ZERO_OR_ONE_START)" marker-end="url(#ONLY_ONE_END)" d="M298.66796875,498L298.66796875,506.3333333333333C298.66796875,514.6666666666666,298.66796875,531.3333333333334,310.593269469246,548C322.51857018849205,564.6666666666666,346.3691716269841,581.3333333333334,358.2944723462302,589.6666666666666L370.2197730654762,598" class="er relationshipLine"/><path style="stroke: gray; fill: none;" marker-start="url(#ZERO_OR_ONE_START)" marker-end="url(#ONLY_ONE_END)" d="M231.78125,93.29263414209932L205.49739583333334,104.41052845174943C179.21354166666666,115.52842276139954,126.64583333333333,137.76421138069978,100.36197916666667,173.71543902368322C74.078125,209.66666666666666,74.078125,259.3333333333333,74.078125,284.1666666666667L74.078125,309" class="er relationshipLine"/><path style="stroke: gray; fill: none;" marker-start="url(#ZERO_OR_MORE_START)" marker-end="url(#ONLY_ONE_END)" d="M365.5546875,91.43039352679297L394.4759114583333,102.85866127232748C423.3971354166667,114.28692901786197,481.2395833333333,137.14346450893098,510.1608072916667,160.5717322544655C539.08203125,184,539.08203125,208,539.08203125,220L539.08203125,232" class="er relationshipLine"/><path style="stroke: gray; fill: none;" marker-start="url(#ZERO_OR_MORE_START)" marker-end="url(#ONLY_ONE_END)" d="M298.66796875,110L298.66796875,118.33333333333333C298.66796875,126.66666666666667,298.66796875,143.33333333333334,298.66796875,160C298.66796875,176.66666666666666,298.66796875,193.33333333333334,298.66796875,201.66666666666666L298.66796875,210" class="er relationshipLine"/><path style="stroke: gray; fill: none;" marker-start="url(#ZERO_OR_ONE_START)" marker-end="url(#ONLY_ONE_END)" d="M539.08203125,476L539.08203125,488C539.08203125,500,539.08203125,524,527.156730530754,544.3333333333334C515.231429811508,564.6666666666666,491.3808283730159,581.3333333333334,479.4555276537699,589.6666666666666L467.5302269345238,598" class="er relationshipLine"/><g transform="translate(368.875,598 )" id="entity-YesOrNo-4f3a85e7-ce29-4f39-88b9-99d2d95386df"><rect height="68" width="100" y="0" x="0" class="er entityBox"/><text style="dominant-baseline: middle; text-anchor: middle; font-size: 12px;" transform="translate(50,12)" y="0" x="0" id="text-entity-YesOrNo-4f3a85e7-ce29-4f39-88b9-99d2d95386df" class="er entityLabel">YesOrNo</text><rect height="22" width="50" y="24" x="0" class="er attributeBoxOdd"/><text style="dominant-baseline: middle; font-size: 10.2px;" transform="translate(5,35)" y="0" x="0" id="text-entity-YesOrNo-4f3a85e7-ce29-4f39-88b9-99d2d95386df-attr-1-type" class="er entityLabel">Y</text><rect height="22" width="50" y="24" x="50" class="er attributeBoxOdd"/><text style="dominant-baseline: middle; font-size: 10.2px;" transform="translate(55,35)" y="0" x="0" id="text-entity-YesOrNo-4f3a85e7-ce29-4f39-88b9-99d2d95386df-attr-1-name" class="er entityLabel">Y</text><rect height="22" width="50" y="46" x="0" class="er attributeBoxEven"/><text style="dominant-baseline: middle; font-size: 10.2px;" transform="translate(5,57)" y="0" x="0" id="text-entity-YesOrNo-4f3a85e7-ce29-4f39-88b9-99d2d95386df-attr-2-type" class="er entityLabel">N</text><rect height="22" width="50" y="46" x="50" class="er attributeBoxEven"/><text style="dominant-baseline: middle; font-size: 10.2px;" transform="translate(55,57)" y="0" x="0" id="text-entity-YesOrNo-4f3a85e7-ce29-4f39-88b9-99d2d95386df-attr-2-name" class="er entityLabel">N</text></g><g transform="translate(20,309 )" id="entity-AppRole-d12d0970-4341-4bad-8e0d-8389a0cd532c"><rect height="90" width="108.15625" y="0" x="0" class="er entityBox"/><text style="dominant-baseline: middle; text-anchor: middle; font-size: 12px;" transform="translate(54.078125,12)" y="0" x="0" id="text-entity-AppRole-d12d0970-4341-4bad-8e0d-8389a0cd532c" class="er entityLabel">AppRole</text><rect height="22" width="54.078125" y="24" x="0" class="er attributeBoxOdd"/><text style="dominant-baseline: middle; font-size: 10.2px;" transform="translate(5,35)" y="0" x="0" id="text-entity-AppRole-d12d0970-4341-4bad-8e0d-8389a0cd532c-attr-1-type" class="er entityLabel">SUPER</text><rect height="22" width="54.078125" y="24" x="54.078125" class="er attributeBoxOdd"/><text style="dominant-baseline: middle; font-size: 10.2px;" transform="translate(59.078125,35)" y="0" x="0" id="text-entity-AppRole-d12d0970-4341-4bad-8e0d-8389a0cd532c-attr-1-name" class="er entityLabel">SUPER</text><rect height="22" width="54.078125" y="46" x="0" class="er attributeBoxEven"/><text style="dominant-baseline: middle; font-size: 10.2px;" transform="translate(5,57)" y="0" x="0" id="text-entity-AppRole-d12d0970-4341-4bad-8e0d-8389a0cd532c-attr-2-type" class="er entityLabel">MANAGER</text><rect height="22" width="54.078125" y="46" x="54.078125" class="er attributeBoxEven"/><text style="dominant-baseline: middle; font-size: 10.2px;" transform="translate(59.078125,57)" y="0" x="0" id="text-entity-AppRole-d12d0970-4341-4bad-8e0d-8389a0cd532c-attr-2-name" class="er entityLabel">MANAGER</text><rect height="22" width="54.078125" y="68" x="0" class="er attributeBoxOdd"/><text style="dominant-baseline: middle; font-size: 10.2px;" transform="translate(5,79)" y="0" x="0" id="text-entity-AppRole-d12d0970-4341-4bad-8e0d-8389a0cd532c-attr-3-type" class="er entityLabel">USER</text><rect height="22" width="54.078125" y="68" x="54.078125" class="er attributeBoxOdd"/><text style="dominant-baseline: middle; font-size: 10.2px;" transform="translate(59.078125,79)" y="0" x="0" id="text-entity-AppRole-d12d0970-4341-4bad-8e0d-8389a0cd532c-attr-3-name" class="er entityLabel">USER</text></g><g transform="translate(228.15625,210 )" id="entity-tbuser-7bce10e9-78f3-4674-85c2-111a995ab1d1"><rect height="288" width="141.0234375" y="0" x="0" class="er entityBox"/><text style="dominant-baseline: middle; text-anchor: middle; font-size: 12px;" transform="translate(70.51171875,12)" y="0" x="0" id="text-entity-tbuser-7bce10e9-78f3-4674-85c2-111a995ab1d1" class="er entityLabel">tb_user</text><rect height="22" width="53.6640625" y="24" x="0" class="er attributeBoxOdd"/><text style="dominant-baseline: middle; font-size: 10.2px;" transform="translate(5,35)" y="0" x="0" id="text-entity-tbuser-7bce10e9-78f3-4674-85c2-111a995ab1d1-attr-1-type" class="er entityLabel">Int</text><rect height="22" width="65.796875" y="24" x="53.6640625" class="er attributeBoxOdd"/><text style="dominant-baseline: middle; font-size: 10.2px;" transform="translate(58.6640625,35)" y="0" x="0" id="text-entity-tbuser-7bce10e9-78f3-4674-85c2-111a995ab1d1-attr-1-name" class="er entityLabel">user_seq</text><rect height="22" width="21.5625" y="24" x="119.4609375" class="er attributeBoxOdd"/><text style="dominant-baseline: middle; font-size: 10.2px;" transform="translate(124.4609375,35)" y="0" x="0" id="text-entity-tbuser-7bce10e9-78f3-4674-85c2-111a995ab1d1-attr-1-key" class="er entityLabel">PK</text><rect height="22" width="53.6640625" y="46" x="0" class="er attributeBoxEven"/><text style="dominant-baseline: middle; font-size: 10.2px;" transform="translate(5,57)" y="0" x="0" id="text-entity-tbuser-7bce10e9-78f3-4674-85c2-111a995ab1d1-attr-2-type" class="er entityLabel">String</text><rect height="22" width="65.796875" y="46" x="53.6640625" class="er attributeBoxEven"/><text style="dominant-baseline: middle; font-size: 10.2px;" transform="translate(58.6640625,57)" y="0" x="0" id="text-entity-tbuser-7bce10e9-78f3-4674-85c2-111a995ab1d1-attr-2-name" class="er entityLabel">user_id</text><rect height="22" width="21.5625" y="46" x="119.4609375" class="er attributeBoxEven"/><text style="dominant-baseline: middle; font-size: 10.2px;" transform="translate(124.4609375,57)" y="0" x="0" id="text-entity-tbuser-7bce10e9-78f3-4674-85c2-111a995ab1d1-attr-2-key" class="er entityLabel"/><rect height="22" width="53.6640625" y="68" x="0" class="er attributeBoxOdd"/><text style="dominant-baseline: middle; font-size: 10.2px;" transform="translate(5,79)" y="0" x="0" id="text-entity-tbuser-7bce10e9-78f3-4674-85c2-111a995ab1d1-attr-3-type" class="er entityLabel">String</text><rect height="22" width="65.796875" y="68" x="53.6640625" class="er attributeBoxOdd"/><text style="dominant-baseline: middle; font-size: 10.2px;" transform="translate(58.6640625,79)" y="0" x="0" id="text-entity-tbuser-7bce10e9-78f3-4674-85c2-111a995ab1d1-attr-3-name" class="er entityLabel">user_nm</text><rect height="22" width="21.5625" y="68" x="119.4609375" class="er attributeBoxOdd"/><text style="dominant-baseline: middle; font-size: 10.2px;" transform="translate(124.4609375,79)" y="0" x="0" id="text-entity-tbuser-7bce10e9-78f3-4674-85c2-111a995ab1d1-attr-3-key" class="er entityLabel"/><rect height="22" width="53.6640625" y="90" x="0" class="er attributeBoxEven"/><text style="dominant-baseline: middle; font-size: 10.2px;" transform="translate(5,101)" y="0" x="0" id="text-entity-tbuser-7bce10e9-78f3-4674-85c2-111a995ab1d1-attr-4-type" class="er entityLabel">String</text><rect height="22" width="65.796875" y="90" x="53.6640625" class="er attributeBoxEven"/><text style="dominant-baseline: middle; font-size: 10.2px;" transform="translate(58.6640625,101)" y="0" x="0" id="text-entity-tbuser-7bce10e9-78f3-4674-85c2-111a995ab1d1-attr-4-name" class="er entityLabel">user_pwd</text><rect height="22" width="21.5625" y="90" x="119.4609375" class="er attributeBoxEven"/><text style="dominant-baseline: middle; font-size: 10.2px;" transform="translate(124.4609375,101)" y="0" x="0" id="text-entity-tbuser-7bce10e9-78f3-4674-85c2-111a995ab1d1-attr-4-key" class="er entityLabel"/><rect height="22" width="53.6640625" y="112" x="0" class="er attributeBoxOdd"/><text style="dominant-baseline: middle; font-size: 10.2px;" transform="translate(5,123)" y="0" x="0" id="text-entity-tbuser-7bce10e9-78f3-4674-85c2-111a995ab1d1-attr-5-type" class="er entityLabel">String</text><rect height="22" width="65.796875" y="112" x="53.6640625" class="er attributeBoxOdd"/><text style="dominant-baseline: middle; font-size: 10.2px;" transform="translate(58.6640625,123)" y="0" x="0" id="text-entity-tbuser-7bce10e9-78f3-4674-85c2-111a995ab1d1-attr-5-name" class="er entityLabel">user_phone</text><rect height="22" width="21.5625" y="112" x="119.4609375" class="er attributeBoxOdd"/><text style="dominant-baseline: middle; font-size: 10.2px;" transform="translate(124.4609375,123)" y="0" x="0" id="text-entity-tbuser-7bce10e9-78f3-4674-85c2-111a995ab1d1-attr-5-key" class="er entityLabel"/><rect height="22" width="53.6640625" y="134" x="0" class="er attributeBoxEven"/><text style="dominant-baseline: middle; font-size: 10.2px;" transform="translate(5,145)" y="0" x="0" id="text-entity-tbuser-7bce10e9-78f3-4674-85c2-111a995ab1d1-attr-6-type" class="er entityLabel">String</text><rect height="22" width="65.796875" y="134" x="53.6640625" class="er attributeBoxEven"/><text style="dominant-baseline: middle; font-size: 10.2px;" transform="translate(58.6640625,145)" y="0" x="0" id="text-entity-tbuser-7bce10e9-78f3-4674-85c2-111a995ab1d1-attr-6-name" class="er entityLabel">reg_id</text><rect height="22" width="21.5625" y="134" x="119.4609375" class="er attributeBoxEven"/><text style="dominant-baseline: middle; font-size: 10.2px;" transform="translate(124.4609375,145)" y="0" x="0" id="text-entity-tbuser-7bce10e9-78f3-4674-85c2-111a995ab1d1-attr-6-key" class="er entityLabel"/><rect height="22" width="53.6640625" y="156" x="0" class="er attributeBoxOdd"/><text style="dominant-baseline: middle; font-size: 10.2px;" transform="translate(5,167)" y="0" x="0" id="text-entity-tbuser-7bce10e9-78f3-4674-85c2-111a995ab1d1-attr-7-type" class="er entityLabel">String</text><rect height="22" width="65.796875" y="156" x="53.6640625" class="er attributeBoxOdd"/><text style="dominant-baseline: middle; font-size: 10.2px;" transform="translate(58.6640625,167)" y="0" x="0" id="text-entity-tbuser-7bce10e9-78f3-4674-85c2-111a995ab1d1-attr-7-name" class="er entityLabel">reg_nm</text><rect height="22" width="21.5625" y="156" x="119.4609375" class="er attributeBoxOdd"/><text style="dominant-baseline: middle; font-size: 10.2px;" transform="translate(124.4609375,167)" y="0" x="0" id="text-entity-tbuser-7bce10e9-78f3-4674-85c2-111a995ab1d1-attr-7-key" class="er entityLabel"/><rect height="22" width="53.6640625" y="178" x="0" class="er attributeBoxEven"/><text style="dominant-baseline: middle; font-size: 10.2px;" transform="translate(5,189)" y="0" x="0" id="text-entity-tbuser-7bce10e9-78f3-4674-85c2-111a995ab1d1-attr-8-type" class="er entityLabel">DateTime</text><rect height="22" width="65.796875" y="178" x="53.6640625" class="er attributeBoxEven"/><text style="dominant-baseline: middle; font-size: 10.2px;" transform="translate(58.6640625,189)" y="0" x="0" id="text-entity-tbuser-7bce10e9-78f3-4674-85c2-111a995ab1d1-attr-8-name" class="er entityLabel">reg_dt</text><rect height="22" width="21.5625" y="178" x="119.4609375" class="er attributeBoxEven"/><text style="dominant-baseline: middle; font-size: 10.2px;" transform="translate(124.4609375,189)" y="0" x="0" id="text-entity-tbuser-7bce10e9-78f3-4674-85c2-111a995ab1d1-attr-8-key" class="er entityLabel"/><rect height="22" width="53.6640625" y="200" x="0" class="er attributeBoxOdd"/><text style="dominant-baseline: middle; font-size: 10.2px;" transform="translate(5,211)" y="0" x="0" id="text-entity-tbuser-7bce10e9-78f3-4674-85c2-111a995ab1d1-attr-9-type" class="er entityLabel">String</text><rect height="22" width="65.796875" y="200" x="53.6640625" class="er attributeBoxOdd"/><text style="dominant-baseline: middle; font-size: 10.2px;" transform="translate(58.6640625,211)" y="0" x="0" id="text-entity-tbuser-7bce10e9-78f3-4674-85c2-111a995ab1d1-attr-9-name" class="er entityLabel">chg_id</text><rect height="22" width="21.5625" y="200" x="119.4609375" class="er attributeBoxOdd"/><text style="dominant-baseline: middle; font-size: 10.2px;" transform="translate(124.4609375,211)" y="0" x="0" id="text-entity-tbuser-7bce10e9-78f3-4674-85c2-111a995ab1d1-attr-9-key" class="er entityLabel"/><rect height="22" width="53.6640625" y="222" x="0" class="er attributeBoxEven"/><text style="dominant-baseline: middle; font-size: 10.2px;" transform="translate(5,233)" y="0" x="0" id="text-entity-tbuser-7bce10e9-78f3-4674-85c2-111a995ab1d1-attr-10-type" class="er entityLabel">String</text><rect height="22" width="65.796875" y="222" x="53.6640625" class="er attributeBoxEven"/><text style="dominant-baseline: middle; font-size: 10.2px;" transform="translate(58.6640625,233)" y="0" x="0" id="text-entity-tbuser-7bce10e9-78f3-4674-85c2-111a995ab1d1-attr-10-name" class="er entityLabel">chg_nm</text><rect height="22" width="21.5625" y="222" x="119.4609375" class="er attributeBoxEven"/><text style="dominant-baseline: middle; font-size: 10.2px;" transform="translate(124.4609375,233)" y="0" x="0" id="text-entity-tbuser-7bce10e9-78f3-4674-85c2-111a995ab1d1-attr-10-key" class="er entityLabel"/><rect height="22" width="53.6640625" y="244" x="0" class="er attributeBoxOdd"/><text style="dominant-baseline: middle; font-size: 10.2px;" transform="translate(5,255)" y="0" x="0" id="text-entity-tbuser-7bce10e9-78f3-4674-85c2-111a995ab1d1-attr-11-type" class="er entityLabel">DateTime</text><rect height="22" width="65.796875" y="244" x="53.6640625" class="er attributeBoxOdd"/><text style="dominant-baseline: middle; font-size: 10.2px;" transform="translate(58.6640625,255)" y="0" x="0" id="text-entity-tbuser-7bce10e9-78f3-4674-85c2-111a995ab1d1-attr-11-name" class="er entityLabel">chg_dt</text><rect height="22" width="21.5625" y="244" x="119.4609375" class="er attributeBoxOdd"/><text style="dominant-baseline: middle; font-size: 10.2px;" transform="translate(124.4609375,255)" y="0" x="0" id="text-entity-tbuser-7bce10e9-78f3-4674-85c2-111a995ab1d1-attr-11-key" class="er entityLabel"/><rect height="22" width="53.6640625" y="266" x="0" class="er attributeBoxEven"/><text style="dominant-baseline: middle; font-size: 10.2px;" transform="translate(5,277)" y="0" x="0" id="text-entity-tbuser-7bce10e9-78f3-4674-85c2-111a995ab1d1-attr-12-type" class="er entityLabel">YesOrNo</text><rect height="22" width="65.796875" y="266" x="53.6640625" class="er attributeBoxEven"/><text style="dominant-baseline: middle; font-size: 10.2px;" transform="translate(58.6640625,277)" y="0" x="0" id="text-entity-tbuser-7bce10e9-78f3-4674-85c2-111a995ab1d1-attr-12-name" class="er entityLabel">user_use_yn</text><rect height="22" width="21.5625" y="266" x="119.4609375" class="er attributeBoxEven"/><text style="dominant-baseline: middle; font-size: 10.2px;" transform="translate(124.4609375,277)" y="0" x="0" id="text-entity-tbuser-7bce10e9-78f3-4674-85c2-111a995ab1d1-attr-12-key" class="er entityLabel"/></g><g transform="translate(231.78125,20 )" id="entity-tbuserrolemapp-82496d7f-a394-498e-b133-b25a7ef1502c"><rect height="90" width="133.7734375" y="0" x="0" class="er entityBox"/><text style="dominant-baseline: middle; text-anchor: middle; font-size: 12px;" transform="translate(66.88671875,12)" y="0" x="0" id="text-entity-tbuserrolemapp-82496d7f-a394-498e-b133-b25a7ef1502c" class="er entityLabel">tb_user_role_mapp</text><rect height="22" width="65.3203125" y="24" x="0" class="er attributeBoxOdd"/><text style="dominant-baseline: middle; font-size: 10.2px;" transform="translate(5,35)" y="0" x="0" id="text-entity-tbuserrolemapp-82496d7f-a394-498e-b133-b25a7ef1502c-attr-1-type" class="er entityLabel">Int</text><rect height="22" width="68.453125" y="24" x="65.3203125" class="er attributeBoxOdd"/><text style="dominant-baseline: middle; font-size: 10.2px;" transform="translate(70.3203125,35)" y="0" x="0" id="text-entity-tbuserrolemapp-82496d7f-a394-498e-b133-b25a7ef1502c-attr-1-name" class="er entityLabel">user_seq</text><rect height="22" width="65.3203125" y="46" x="0" class="er attributeBoxEven"/><text style="dominant-baseline: middle; font-size: 10.2px;" transform="translate(5,57)" y="0" x="0" id="text-entity-tbuserrolemapp-82496d7f-a394-498e-b133-b25a7ef1502c-attr-2-type" class="er entityLabel">Int</text><rect height="22" width="68.453125" y="46" x="65.3203125" class="er attributeBoxEven"/><text style="dominant-baseline: middle; font-size: 10.2px;" transform="translate(70.3203125,57)" y="0" x="0" id="text-entity-tbuserrolemapp-82496d7f-a394-498e-b133-b25a7ef1502c-attr-2-name" class="er entityLabel">role_seq</text><rect height="22" width="65.3203125" y="68" x="0" class="er attributeBoxOdd"/><text style="dominant-baseline: middle; font-size: 10.2px;" transform="translate(5,79)" y="0" x="0" id="text-entity-tbuserrolemapp-82496d7f-a394-498e-b133-b25a7ef1502c-attr-3-type" class="er entityLabel">AppRole</text><rect height="22" width="68.453125" y="68" x="65.3203125" class="er attributeBoxOdd"/><text style="dominant-baseline: middle; font-size: 10.2px;" transform="translate(70.3203125,79)" y="0" x="0" id="text-entity-tbuserrolemapp-82496d7f-a394-498e-b133-b25a7ef1502c-attr-3-name" class="er entityLabel">app_role</text></g><g transform="translate(469.1796875,232 )" id="entity-tbrole-413de74f-fa9d-4a51-b6b7-01b22d64f68d"><rect height="244" width="139.8046875" y="0" x="0" class="er entityBox"/><text style="dominant-baseline: middle; text-anchor: middle; font-size: 12px;" transform="translate(69.90234375,12)" y="0" x="0" id="text-entity-tbrole-413de74f-fa9d-4a51-b6b7-01b22d64f68d" class="er entityLabel">tb_role</text><rect height="22" width="53.6640625" y="24" x="0" class="er attributeBoxOdd"/><text style="dominant-baseline: middle; font-size: 10.2px;" transform="translate(5,35)" y="0" x="0" id="text-entity-tbrole-413de74f-fa9d-4a51-b6b7-01b22d64f68d-attr-1-type" class="er entityLabel">Int</text><rect height="22" width="64.578125" y="24" x="53.6640625" class="er attributeBoxOdd"/><text style="dominant-baseline: middle; font-size: 10.2px;" transform="translate(58.6640625,35)" y="0" x="0" id="text-entity-tbrole-413de74f-fa9d-4a51-b6b7-01b22d64f68d-attr-1-name" class="er entityLabel">role_seq</text><rect height="22" width="21.5625" y="24" x="118.2421875" class="er attributeBoxOdd"/><text style="dominant-baseline: middle; font-size: 10.2px;" transform="translate(123.2421875,35)" y="0" x="0" id="text-entity-tbrole-413de74f-fa9d-4a51-b6b7-01b22d64f68d-attr-1-key" class="er entityLabel">PK</text><rect height="22" width="53.6640625" y="46" x="0" class="er attributeBoxEven"/><text style="dominant-baseline: middle; font-size: 10.2px;" transform="translate(5,57)" y="0" x="0" id="text-entity-tbrole-413de74f-fa9d-4a51-b6b7-01b22d64f68d-attr-2-type" class="er entityLabel">String</text><rect height="22" width="64.578125" y="46" x="53.6640625" class="er attributeBoxEven"/><text style="dominant-baseline: middle; font-size: 10.2px;" transform="translate(58.6640625,57)" y="0" x="0" id="text-entity-tbrole-413de74f-fa9d-4a51-b6b7-01b22d64f68d-attr-2-name" class="er entityLabel">role_id</text><rect height="22" width="21.5625" y="46" x="118.2421875" class="er attributeBoxEven"/><text style="dominant-baseline: middle; font-size: 10.2px;" transform="translate(123.2421875,57)" y="0" x="0" id="text-entity-tbrole-413de74f-fa9d-4a51-b6b7-01b22d64f68d-attr-2-key" class="er entityLabel"/><rect height="22" width="53.6640625" y="68" x="0" class="er attributeBoxOdd"/><text style="dominant-baseline: middle; font-size: 10.2px;" transform="translate(5,79)" y="0" x="0" id="text-entity-tbrole-413de74f-fa9d-4a51-b6b7-01b22d64f68d-attr-3-type" class="er entityLabel">String</text><rect height="22" width="64.578125" y="68" x="53.6640625" class="er attributeBoxOdd"/><text style="dominant-baseline: middle; font-size: 10.2px;" transform="translate(58.6640625,79)" y="0" x="0" id="text-entity-tbrole-413de74f-fa9d-4a51-b6b7-01b22d64f68d-attr-3-name" class="er entityLabel">role_nm</text><rect height="22" width="21.5625" y="68" x="118.2421875" class="er attributeBoxOdd"/><text style="dominant-baseline: middle; font-size: 10.2px;" transform="translate(123.2421875,79)" y="0" x="0" id="text-entity-tbrole-413de74f-fa9d-4a51-b6b7-01b22d64f68d-attr-3-key" class="er entityLabel"/><rect height="22" width="53.6640625" y="90" x="0" class="er attributeBoxEven"/><text style="dominant-baseline: middle; font-size: 10.2px;" transform="translate(5,101)" y="0" x="0" id="text-entity-tbrole-413de74f-fa9d-4a51-b6b7-01b22d64f68d-attr-4-type" class="er entityLabel">YesOrNo</text><rect height="22" width="64.578125" y="90" x="53.6640625" class="er attributeBoxEven"/><text style="dominant-baseline: middle; font-size: 10.2px;" transform="translate(58.6640625,101)" y="0" x="0" id="text-entity-tbrole-413de74f-fa9d-4a51-b6b7-01b22d64f68d-attr-4-name" class="er entityLabel">role_use_yn</text><rect height="22" width="21.5625" y="90" x="118.2421875" class="er attributeBoxEven"/><text style="dominant-baseline: middle; font-size: 10.2px;" transform="translate(123.2421875,101)" y="0" x="0" id="text-entity-tbrole-413de74f-fa9d-4a51-b6b7-01b22d64f68d-attr-4-key" class="er entityLabel"/><rect height="22" width="53.6640625" y="112" x="0" class="er attributeBoxOdd"/><text style="dominant-baseline: middle; font-size: 10.2px;" transform="translate(5,123)" y="0" x="0" id="text-entity-tbrole-413de74f-fa9d-4a51-b6b7-01b22d64f68d-attr-5-type" class="er entityLabel">String</text><rect height="22" width="64.578125" y="112" x="53.6640625" class="er attributeBoxOdd"/><text style="dominant-baseline: middle; font-size: 10.2px;" transform="translate(58.6640625,123)" y="0" x="0" id="text-entity-tbrole-413de74f-fa9d-4a51-b6b7-01b22d64f68d-attr-5-name" class="er entityLabel">reg_id</text><rect height="22" width="21.5625" y="112" x="118.2421875" class="er attributeBoxOdd"/><text style="dominant-baseline: middle; font-size: 10.2px;" transform="translate(123.2421875,123)" y="0" x="0" id="text-entity-tbrole-413de74f-fa9d-4a51-b6b7-01b22d64f68d-attr-5-key" class="er entityLabel"/><rect height="22" width="53.6640625" y="134" x="0" class="er attributeBoxEven"/><text style="dominant-baseline: middle; font-size: 10.2px;" transform="translate(5,145)" y="0" x="0" id="text-entity-tbrole-413de74f-fa9d-4a51-b6b7-01b22d64f68d-attr-6-type" class="er entityLabel">String</text><rect height="22" width="64.578125" y="134" x="53.6640625" class="er attributeBoxEven"/><text style="dominant-baseline: middle; font-size: 10.2px;" transform="translate(58.6640625,145)" y="0" x="0" id="text-entity-tbrole-413de74f-fa9d-4a51-b6b7-01b22d64f68d-attr-6-name" class="er entityLabel">reg_nm</text><rect height="22" width="21.5625" y="134" x="118.2421875" class="er attributeBoxEven"/><text style="dominant-baseline: middle; font-size: 10.2px;" transform="translate(123.2421875,145)" y="0" x="0" id="text-entity-tbrole-413de74f-fa9d-4a51-b6b7-01b22d64f68d-attr-6-key" class="er entityLabel"/><rect height="22" width="53.6640625" y="156" x="0" class="er attributeBoxOdd"/><text style="dominant-baseline: middle; font-size: 10.2px;" transform="translate(5,167)" y="0" x="0" id="text-entity-tbrole-413de74f-fa9d-4a51-b6b7-01b22d64f68d-attr-7-type" class="er entityLabel">DateTime</text><rect height="22" width="64.578125" y="156" x="53.6640625" class="er attributeBoxOdd"/><text style="dominant-baseline: middle; font-size: 10.2px;" transform="translate(58.6640625,167)" y="0" x="0" id="text-entity-tbrole-413de74f-fa9d-4a51-b6b7-01b22d64f68d-attr-7-name" class="er entityLabel">reg_dt</text><rect height="22" width="21.5625" y="156" x="118.2421875" class="er attributeBoxOdd"/><text style="dominant-baseline: middle; font-size: 10.2px;" transform="translate(123.2421875,167)" y="0" x="0" id="text-entity-tbrole-413de74f-fa9d-4a51-b6b7-01b22d64f68d-attr-7-key" class="er entityLabel"/><rect height="22" width="53.6640625" y="178" x="0" class="er attributeBoxEven"/><text style="dominant-baseline: middle; font-size: 10.2px;" transform="translate(5,189)" y="0" x="0" id="text-entity-tbrole-413de74f-fa9d-4a51-b6b7-01b22d64f68d-attr-8-type" class="er entityLabel">String</text><rect height="22" width="64.578125" y="178" x="53.6640625" class="er attributeBoxEven"/><text style="dominant-baseline: middle; font-size: 10.2px;" transform="translate(58.6640625,189)" y="0" x="0" id="text-entity-tbrole-413de74f-fa9d-4a51-b6b7-01b22d64f68d-attr-8-name" class="er entityLabel">chg_id</text><rect height="22" width="21.5625" y="178" x="118.2421875" class="er attributeBoxEven"/><text style="dominant-baseline: middle; font-size: 10.2px;" transform="translate(123.2421875,189)" y="0" x="0" id="text-entity-tbrole-413de74f-fa9d-4a51-b6b7-01b22d64f68d-attr-8-key" class="er entityLabel"/><rect height="22" width="53.6640625" y="200" x="0" class="er attributeBoxOdd"/><text style="dominant-baseline: middle; font-size: 10.2px;" transform="translate(5,211)" y="0" x="0" id="text-entity-tbrole-413de74f-fa9d-4a51-b6b7-01b22d64f68d-attr-9-type" class="er entityLabel">String</text><rect height="22" width="64.578125" y="200" x="53.6640625" class="er attributeBoxOdd"/><text style="dominant-baseline: middle; font-size: 10.2px;" transform="translate(58.6640625,211)" y="0" x="0" id="text-entity-tbrole-413de74f-fa9d-4a51-b6b7-01b22d64f68d-attr-9-name" class="er entityLabel">chg_nm</text><rect height="22" width="21.5625" y="200" x="118.2421875" class="er attributeBoxOdd"/><text style="dominant-baseline: middle; font-size: 10.2px;" transform="translate(123.2421875,211)" y="0" x="0" id="text-entity-tbrole-413de74f-fa9d-4a51-b6b7-01b22d64f68d-attr-9-key" class="er entityLabel"/><rect height="22" width="53.6640625" y="222" x="0" class="er attributeBoxEven"/><text style="dominant-baseline: middle; font-size: 10.2px;" transform="translate(5,233)" y="0" x="0" id="text-entity-tbrole-413de74f-fa9d-4a51-b6b7-01b22d64f68d-attr-10-type" class="er entityLabel">DateTime</text><rect height="22" width="64.578125" y="222" x="53.6640625" class="er attributeBoxEven"/><text style="dominant-baseline: middle; font-size: 10.2px;" transform="translate(58.6640625,233)" y="0" x="0" id="text-entity-tbrole-413de74f-fa9d-4a51-b6b7-01b22d64f68d-attr-10-name" class="er entityLabel">chg_dt</text><rect height="22" width="21.5625" y="222" x="118.2421875" class="er attributeBoxEven"/><text style="dominant-baseline: middle; font-size: 10.2px;" transform="translate(123.2421875,233)" y="0" x="0" id="text-entity-tbrole-413de74f-fa9d-4a51-b6b7-01b22d64f68d-attr-10-key" class="er entityLabel"/></g><rect height="14" width="99.671875" y="550.8109130859375" x="269.03521728515625" class="er relationshipLabelBox"/><text style="text-anchor: middle; dominant-baseline: middle; font-size: 12px;" y="557.8109130859375" x="318.87115478515625" id="rel1" class="er relationshipLabel">enum:user_use_yn</text><rect height="14" width="81.1875" y="160.591552734375" x="64.60213470458984" class="er relationshipLabelBox"/><text style="text-anchor: middle; dominant-baseline: middle; font-size: 12px;" y="167.591552734375" x="105.19588470458984" id="rel2" class="er relationshipLabel">enum:app_role</text><rect height="14" width="26.046875" y="132.1551055908203" x="463.40679931640625" class="er relationshipLabelBox"/><text style="text-anchor: middle; dominant-baseline: middle; font-size: 12px;" y="139.1551055908203" x="476.43023681640625" id="rel3" class="er relationshipLabel">roles</text><rect height="14" width="27.484375" y="153" x="284.92578125" class="er relationshipLabelBox"/><text style="text-anchor: middle; dominant-baseline: middle; font-size: 12px;" y="160" x="298.66796875" id="rel4" class="er relationshipLabel">users</text><rect height="14" width="98.234375" y="541.782958984375" x="475.20684814453125" class="er relationshipLabelBox"/><text style="text-anchor: middle; dominant-baseline: middle; font-size: 12px;" y="548.782958984375" x="524.3240356445312" id="rel5" class="er relationshipLabel">enum:role_use_yn</text></svg>