<svg aria-roledescription="er" viewBox="0 0 629 687.376953125" style="max-width: 629px; background-color: white;" xmlns:xlink="http://www.w3.org/1999/xlink" xmlns="http://www.w3.org/2000/svg" width="100%" id="mermaid-0"><style>#mermaid-0{font-family:"trebuchet ms",verdana,arial,sans-serif;font-size:16px;fill:#000000;}#mermaid-0 .error-icon{fill:#552222;}#mermaid-0 .error-text{fill:#552222;stroke:#552222;}#mermaid-0 .edge-thickness-normal{stroke-width:2px;}#mermaid-0 .edge-thickness-thick{stroke-width:3.5px;}#mermaid-0 .edge-pattern-solid{stroke-dasharray:0;}#mermaid-0 .edge-pattern-dashed{stroke-dasharray:3;}#mermaid-0 .edge-pattern-dotted{stroke-dasharray:2;}#mermaid-0 .marker{fill:#000000;stroke:#000000;}#mermaid-0 .marker.cross{stroke:#000000;}#mermaid-0 svg{font-family:"trebuchet ms",verdana,arial,sans-serif;font-size:16px;}#mermaid-0 .entityBox{fill:#cde498;stroke:#13540c;}#mermaid-0 .attributeBoxOdd{fill:#ffffff;stroke:#13540c;}#mermaid-0 .attributeBoxEven{fill:#f2f2f2;stroke:#13540c;}#mermaid-0 .relationshipLabelBox{fill:hsl(78.1578947368, 58.4615384615%, 84.5098039216%);opacity:0.7;background-color:hsl(78.1578947368, 58.4615384615%, 84.5098039216%);}#mermaid-0 .relationshipLabelBox rect{opacity:0.5;}#mermaid-0 .relationshipLine{stroke:#000000;}#mermaid-0 .entityTitleText{text-anchor:middle;font-size:18px;fill:#000000;}#mermaid-0 :root{--mermaid-font-family:"trebuchet ms",verdana,arial,sans-serif;}</style><g/><defs><marker orient="auto" markerHeight="18" markerWidth="18" refY="9" refX="0" id="ONLY_ONE_START"><path d="M9,0 L9,18 M15,0 L15,18" fill="none" stroke="gray"/></marker></defs><defs><marker orient="auto" markerHeight="18" markerWidth="18" refY="9" refX="18" id="ONLY_ONE_END"><path d="M3,0 L3,18 M9,0 L9,18" fill="none" stroke="gray"/></marker></defs><defs><marker orient="auto" markerHeight="18" markerWidth="30" refY="9" refX="0" id="ZERO_OR_ONE_START"><circle r="6" cy="9" cx="21" fill="white" stroke="gray"/><path d="M9,0 L9,18" fill="none" stroke="gray"/></marker></defs><defs><marker orient="auto" markerHeight="18" markerWidth="30" refY="9" refX="30" id="ZERO_OR_ONE_END"><circle r="6" cy="9" cx="9" fill="white" stroke="gray"/><path d="M21,0 L21,18" fill="none" stroke="gray"/></marker></defs><defs><marker orient="auto" markerHeight="36" markerWidth="45" refY="18" refX="18" id="ONE_OR_MORE_START"><path d="M0,18 Q 18,0 36,18 Q 18,36 0,18 M42,9 L42,27" fill="none" stroke="gray"/></marker></defs><defs><marker orient="auto" markerHeight="36" markerWidth="45" refY="18" refX="27" id="ONE_OR_MORE_END"><path d="M3,9 L3,27 M9,18 Q27,0 45,18 Q27,36 9,18" fill="none" stroke="gray"/></marker></defs><defs><marker orient="auto" markerHeight="36" markerWidth="57" refY="18" refX="18" id="ZERO_OR_MORE_START"><circle r="6" cy="18" cx="48" fill="white" stroke="gray"/><path d="M0,18 Q18,0 36,18 Q18,36 0,18" fill="none" stroke="gray"/></marker></defs><defs><marker orient="auto" markerHeight="36" markerWidth="57" refY="18" refX="39" id="ZERO_OR_MORE_END"><circle r="6" cy="18" cx="9" fill="white" stroke="gray"/><path d="M21,18 Q39,0 57,18 Q39,36 21,18" fill="none" stroke="gray"/></marker></defs><path style="stroke: gray; fill: none;" marker-start="url(#ZERO_OR_ONE_START)" marker-end="url(#ONLY_ONE_END)" d="M298.671875,499.376953125L298.671875,507.7102864583333C298.671875,516.0436197916666,298.671875,532.7102864583334,310.59756324404765,549.376953125C322.52325148809524,566.0436197916666,346.37462797619054,582.7102864583334,358.3003162202381,591.0436197916666L370.2260044642857,599.376953125" class="er relationshipLine"/><path style="stroke: gray; fill: none;" marker-start="url(#ZERO_OR_ONE_START)" marker-end="url(#ONLY_ONE_END)" d="M231.78125,93.4724993776741L205.49739583333334,104.60631458556175C179.21354166666666,115.7401297934494,126.64583333333333,138.0077602092247,100.36197916666667,174.06670562544568C74.078125,210.12565104166666,74.078125,259.9759114583333,74.078125,284.9010416666667L74.078125,309.826171875" class="er relationshipLine"/><path style="stroke: gray; fill: none;" marker-start="url(#ZERO_OR_MORE_START)" marker-end="url(#ONLY_ONE_END)" d="M365.5625,91.60708334348801L394.484375,103.05180122374001C423.40625,114.496519103992,481.25,137.385954864496,510.171875,160.84597222391469C539.09375,184.30598958333334,539.09375,208.33658854166666,539.09375,220.35188802083334L539.09375,232.3671875" class="er relationshipLine"/><path style="stroke: gray; fill: none;" marker-start="url(#ZERO_OR_MORE_START)" marker-end="url(#ONLY_ONE_END)" d="M298.671875,110.275390625L298.671875,118.60872395833333C298.671875,126.94205729166667,298.671875,143.60872395833334,298.671875,160.275390625C298.671875,176.94205729166666,298.671875,193.60872395833334,298.671875,201.94205729166666L298.671875,210.275390625" class="er relationshipLine"/><path style="stroke: gray; fill: none;" marker-start="url(#ZERO_OR_ONE_START)" marker-end="url(#ONLY_ONE_END)" d="M539.09375,477.28515625L539.09375,489.3004557291667C539.09375,501.3157552083333,539.09375,525.3463541666666,527.1680617559524,545.6949869791666C515.2423735119047,566.0436197916666,491.39099702380946,582.7102864583334,479.46530877976187,591.0436197916666L467.5396205357143,599.376953125" class="er relationshipLine"/><g transform="translate(368.8828125,599.376953125 )" id="entity-YesOrNo-e9da2fdc-022f-4493-88f1-44cb100323b9"><rect height="68" width="100" y="0" x="0" class="er entityBox"/><text style="dominant-baseline: middle; text-anchor: middle; font-size: 12px;" transform="translate(50,12)" y="0" x="0" id="text-entity-YesOrNo-e9da2fdc-022f-4493-88f1-44cb100323b9" class="er entityLabel">YesOrNo</text><rect height="22" width="50" y="24" x="0" class="er attributeBoxOdd"/><text style="dominant-baseline: middle; font-size: 10.2px;" transform="translate(5,35)" y="0" x="0" id="text-entity-YesOrNo-e9da2fdc-022f-4493-88f1-44cb100323b9-attr-1-type" class="er entityLabel">Y</text><rect height="22" width="50" y="24" x="50" class="er attributeBoxOdd"/><text style="dominant-baseline: middle; font-size: 10.2px;" transform="translate(55,35)" y="0" x="0" id="text-entity-YesOrNo-e9da2fdc-022f-4493-88f1-44cb100323b9-attr-1-name" class="er entityLabel">Y</text><rect height="22" width="50" y="46" x="0" class="er attributeBoxEven"/><text style="dominant-baseline: middle; font-size: 10.2px;" transform="translate(5,57)" y="0" x="0" id="text-entity-YesOrNo-e9da2fdc-022f-4493-88f1-44cb100323b9-attr-2-type" class="er entityLabel">N</text><rect height="22" width="50" y="46" x="50" class="er attributeBoxEven"/><text style="dominant-baseline: middle; font-size: 10.2px;" transform="translate(55,57)" y="0" x="0" id="text-entity-YesOrNo-e9da2fdc-022f-4493-88f1-44cb100323b9-attr-2-name" class="er entityLabel">N</text></g><g transform="translate(20,309.826171875 )" id="entity-AppRole-eb3e4b6b-9eed-417a-a222-2cb50aa6d011"><rect height="90" width="108.15625" y="0" x="0" class="er entityBox"/><text style="dominant-baseline: middle; text-anchor: middle; font-size: 12px;" transform="translate(54.078125,12)" y="0" x="0" id="text-entity-AppRole-eb3e4b6b-9eed-417a-a222-2cb50aa6d011" class="er entityLabel">AppRole</text><rect height="22" width="54.078125" y="24" x="0" class="er attributeBoxOdd"/><text style="dominant-baseline: middle; font-size: 10.2px;" transform="translate(5,35)" y="0" x="0" id="text-entity-AppRole-eb3e4b6b-9eed-417a-a222-2cb50aa6d011-attr-1-type" class="er entityLabel">SUPER</text><rect height="22" width="54.078125" y="24" x="54.078125" class="er attributeBoxOdd"/><text style="dominant-baseline: middle; font-size: 10.2px;" transform="translate(59.078125,35)" y="0" x="0" id="text-entity-AppRole-eb3e4b6b-9eed-417a-a222-2cb50aa6d011-attr-1-name" class="er entityLabel">SUPER</text><rect height="22" width="54.078125" y="46" x="0" class="er attributeBoxEven"/><text style="dominant-baseline: middle; font-size: 10.2px;" transform="translate(5,57)" y="0" x="0" id="text-entity-AppRole-eb3e4b6b-9eed-417a-a222-2cb50aa6d011-attr-2-type" class="er entityLabel">MANAGER</text><rect height="22" width="54.078125" y="46" x="54.078125" class="er attributeBoxEven"/><text style="dominant-baseline: middle; font-size: 10.2px;" transform="translate(59.078125,57)" y="0" x="0" id="text-entity-AppRole-eb3e4b6b-9eed-417a-a222-2cb50aa6d011-attr-2-name" class="er entityLabel">MANAGER</text><rect height="22" width="54.078125" y="68" x="0" class="er attributeBoxOdd"/><text style="dominant-baseline: middle; font-size: 10.2px;" transform="translate(5,79)" y="0" x="0" id="text-entity-AppRole-eb3e4b6b-9eed-417a-a222-2cb50aa6d011-attr-3-type" class="er entityLabel">USER</text><rect height="22" width="54.078125" y="68" x="54.078125" class="er attributeBoxOdd"/><text style="dominant-baseline: middle; font-size: 10.2px;" transform="translate(59.078125,79)" y="0" x="0" id="text-entity-AppRole-eb3e4b6b-9eed-417a-a222-2cb50aa6d011-attr-3-name" class="er entityLabel">USER</text></g><g transform="translate(228.15625,210.275390625 )" id="entity-tbuser-d5974fcb-9365-4297-91a8-7a05bf670231"><rect height="289.1015634536743" width="141.03125" y="0" x="0" class="er entityBox"/><text style="dominant-baseline: middle; text-anchor: middle; font-size: 12px;" transform="translate(70.515625,12)" y="0" x="0" id="text-entity-tbuser-d5974fcb-9365-4297-91a8-7a05bf670231" class="er entityLabel">tb_user</text><rect height="22.091796875" width="53.671875" y="24" x="0" class="er attributeBoxOdd"/><text style="dominant-baseline: middle; font-size: 10.2px;" transform="translate(5,35.0458984375)" y="0" x="0" id="text-entity-tbuser-d5974fcb-9365-4297-91a8-7a05bf670231-attr-1-type" class="er entityLabel">Int</text><rect height="22.091796875" width="65.796875" y="24" x="53.671875" class="er attributeBoxOdd"/><text style="dominant-baseline: middle; font-size: 10.2px;" transform="translate(58.671875,35.0458984375)" y="0" x="0" id="text-entity-tbuser-d5974fcb-9365-4297-91a8-7a05bf670231-attr-1-name" class="er entityLabel">user_seq</text><rect height="22.091796875" width="21.5625" y="24" x="119.46875" class="er attributeBoxOdd"/><text style="dominant-baseline: middle; font-size: 10.2px;" transform="translate(124.46875,35.0458984375)" y="0" x="0" id="text-entity-tbuser-d5974fcb-9365-4297-91a8-7a05bf670231-attr-1-key" class="er entityLabel">PK</text><rect height="22.091796875" width="53.671875" y="46.091796875" x="0" class="er attributeBoxEven"/><text style="dominant-baseline: middle; font-size: 10.2px;" transform="translate(5,57.1376953125)" y="0" x="0" id="text-entity-tbuser-d5974fcb-9365-4297-91a8-7a05bf670231-attr-2-type" class="er entityLabel">String</text><rect height="22.091796875" width="65.796875" y="46.091796875" x="53.671875" class="er attributeBoxEven"/><text style="dominant-baseline: middle; font-size: 10.2px;" transform="translate(58.671875,57.1376953125)" y="0" x="0" id="text-entity-tbuser-d5974fcb-9365-4297-91a8-7a05bf670231-attr-2-name" class="er entityLabel">user_id</text><rect height="22.091796875" width="21.5625" y="46.091796875" x="119.46875" class="er attributeBoxEven"/><text style="dominant-baseline: middle; font-size: 10.2px;" transform="translate(124.46875,57.1376953125)" y="0" x="0" id="text-entity-tbuser-d5974fcb-9365-4297-91a8-7a05bf670231-attr-2-key" class="er entityLabel"/><rect height="22.091796875" width="53.671875" y="68.18359375" x="0" class="er attributeBoxOdd"/><text style="dominant-baseline: middle; font-size: 10.2px;" transform="translate(5,79.2294921875)" y="0" x="0" id="text-entity-tbuser-d5974fcb-9365-4297-91a8-7a05bf670231-attr-3-type" class="er entityLabel">String</text><rect height="22.091796875" width="65.796875" y="68.18359375" x="53.671875" class="er attributeBoxOdd"/><text style="dominant-baseline: middle; font-size: 10.2px;" transform="translate(58.671875,79.2294921875)" y="0" x="0" id="text-entity-tbuser-d5974fcb-9365-4297-91a8-7a05bf670231-attr-3-name" class="er entityLabel">user_nm</text><rect height="22.091796875" width="21.5625" y="68.18359375" x="119.46875" class="er attributeBoxOdd"/><text style="dominant-baseline: middle; font-size: 10.2px;" transform="translate(124.46875,79.2294921875)" y="0" x="0" id="text-entity-tbuser-d5974fcb-9365-4297-91a8-7a05bf670231-attr-3-key" class="er entityLabel"/><rect height="22.091796875" width="53.671875" y="90.275390625" x="0" class="er attributeBoxEven"/><text style="dominant-baseline: middle; font-size: 10.2px;" transform="translate(5,101.3212890625)" y="0" x="0" id="text-entity-tbuser-d5974fcb-9365-4297-91a8-7a05bf670231-attr-4-type" class="er entityLabel">String</text><rect height="22.091796875" width="65.796875" y="90.275390625" x="53.671875" class="er attributeBoxEven"/><text style="dominant-baseline: middle; font-size: 10.2px;" transform="translate(58.671875,101.3212890625)" y="0" x="0" id="text-entity-tbuser-d5974fcb-9365-4297-91a8-7a05bf670231-attr-4-name" class="er entityLabel">user_pwd</text><rect height="22.091796875" width="21.5625" y="90.275390625" x="119.46875" class="er attributeBoxEven"/><text style="dominant-baseline: middle; font-size: 10.2px;" transform="translate(124.46875,101.3212890625)" y="0" x="0" id="text-entity-tbuser-d5974fcb-9365-4297-91a8-7a05bf670231-attr-4-key" class="er entityLabel"/><rect height="22.091796875" width="53.671875" y="112.3671875" x="0" class="er attributeBoxOdd"/><text style="dominant-baseline: middle; font-size: 10.2px;" transform="translate(5,123.4130859375)" y="0" x="0" id="text-entity-tbuser-d5974fcb-9365-4297-91a8-7a05bf670231-attr-5-type" class="er entityLabel">String</text><rect height="22.091796875" width="65.796875" y="112.3671875" x="53.671875" class="er attributeBoxOdd"/><text style="dominant-baseline: middle; font-size: 10.2px;" transform="translate(58.671875,123.4130859375)" y="0" x="0" id="text-entity-tbuser-d5974fcb-9365-4297-91a8-7a05bf670231-attr-5-name" class="er entityLabel">user_phone</text><rect height="22.091796875" width="21.5625" y="112.3671875" x="119.46875" class="er attributeBoxOdd"/><text style="dominant-baseline: middle; font-size: 10.2px;" transform="translate(124.46875,123.4130859375)" y="0" x="0" id="text-entity-tbuser-d5974fcb-9365-4297-91a8-7a05bf670231-attr-5-key" class="er entityLabel"/><rect height="22.091797828674316" width="53.671875" y="134.458984375" x="0" class="er attributeBoxEven"/><text style="dominant-baseline: middle; font-size: 10.2px;" transform="translate(5,145.50488328933716)" y="0" x="0" id="text-entity-tbuser-d5974fcb-9365-4297-91a8-7a05bf670231-attr-6-type" class="er entityLabel">String</text><rect height="22.091797828674316" width="65.796875" y="134.458984375" x="53.671875" class="er attributeBoxEven"/><text style="dominant-baseline: middle; font-size: 10.2px;" transform="translate(58.671875,145.50488328933716)" y="0" x="0" id="text-entity-tbuser-d5974fcb-9365-4297-91a8-7a05bf670231-attr-6-name" class="er entityLabel">reg_id</text><rect height="22.091797828674316" width="21.5625" y="134.458984375" x="119.46875" class="er attributeBoxEven"/><text style="dominant-baseline: middle; font-size: 10.2px;" transform="translate(124.46875,145.50488328933716)" y="0" x="0" id="text-entity-tbuser-d5974fcb-9365-4297-91a8-7a05bf670231-attr-6-key" class="er entityLabel"/><rect height="22.091796875" width="53.671875" y="156.55078220367432" x="0" class="er attributeBoxOdd"/><text style="dominant-baseline: middle; font-size: 10.2px;" transform="translate(5,167.59668064117432)" y="0" x="0" id="text-entity-tbuser-d5974fcb-9365-4297-91a8-7a05bf670231-attr-7-type" class="er entityLabel">String</text><rect height="22.091796875" width="65.796875" y="156.55078220367432" x="53.671875" class="er attributeBoxOdd"/><text style="dominant-baseline: middle; font-size: 10.2px;" transform="translate(58.671875,167.59668064117432)" y="0" x="0" id="text-entity-tbuser-d5974fcb-9365-4297-91a8-7a05bf670231-attr-7-name" class="er entityLabel">reg_nm</text><rect height="22.091796875" width="21.5625" y="156.55078220367432" x="119.46875" class="er attributeBoxOdd"/><text style="dominant-baseline: middle; font-size: 10.2px;" transform="translate(124.46875,167.59668064117432)" y="0" x="0" id="text-entity-tbuser-d5974fcb-9365-4297-91a8-7a05bf670231-attr-7-key" class="er entityLabel"/><rect height="22.091796875" width="53.671875" y="178.64257907867432" x="0" class="er attributeBoxEven"/><text style="dominant-baseline: middle; font-size: 10.2px;" transform="translate(5,189.68847751617432)" y="0" x="0" id="text-entity-tbuser-d5974fcb-9365-4297-91a8-7a05bf670231-attr-8-type" class="er entityLabel">DateTime</text><rect height="22.091796875" width="65.796875" y="178.64257907867432" x="53.671875" class="er attributeBoxEven"/><text style="dominant-baseline: middle; font-size: 10.2px;" transform="translate(58.671875,189.68847751617432)" y="0" x="0" id="text-entity-tbuser-d5974fcb-9365-4297-91a8-7a05bf670231-attr-8-name" class="er entityLabel">reg_dt</text><rect height="22.091796875" width="21.5625" y="178.64257907867432" x="119.46875" class="er attributeBoxEven"/><text style="dominant-baseline: middle; font-size: 10.2px;" transform="translate(124.46875,189.68847751617432)" y="0" x="0" id="text-entity-tbuser-d5974fcb-9365-4297-91a8-7a05bf670231-attr-8-key" class="er entityLabel"/><rect height="22.091796875" width="53.671875" y="200.73437595367432" x="0" class="er attributeBoxOdd"/><text style="dominant-baseline: middle; font-size: 10.2px;" transform="translate(5,211.78027439117432)" y="0" x="0" id="text-entity-tbuser-d5974fcb-9365-4297-91a8-7a05bf670231-attr-9-type" class="er entityLabel">String</text><rect height="22.091796875" width="65.796875" y="200.73437595367432" x="53.671875" class="er attributeBoxOdd"/><text style="dominant-baseline: middle; font-size: 10.2px;" transform="translate(58.671875,211.78027439117432)" y="0" x="0" id="text-entity-tbuser-d5974fcb-9365-4297-91a8-7a05bf670231-attr-9-name" class="er entityLabel">chg_id</text><rect height="22.091796875" width="21.5625" y="200.73437595367432" x="119.46875" class="er attributeBoxOdd"/><text style="dominant-baseline: middle; font-size: 10.2px;" transform="translate(124.46875,211.78027439117432)" y="0" x="0" id="text-entity-tbuser-d5974fcb-9365-4297-91a8-7a05bf670231-attr-9-key" class="er entityLabel"/><rect height="22.091796875" width="53.671875" y="222.82617282867432" x="0" class="er attributeBoxEven"/><text style="dominant-baseline: middle; font-size: 10.2px;" transform="translate(5,233.87207126617432)" y="0" x="0" id="text-entity-tbuser-d5974fcb-9365-4297-91a8-7a05bf670231-attr-10-type" class="er entityLabel">String</text><rect height="22.091796875" width="65.796875" y="222.82617282867432" x="53.671875" class="er attributeBoxEven"/><text style="dominant-baseline: middle; font-size: 10.2px;" transform="translate(58.671875,233.87207126617432)" y="0" x="0" id="text-entity-tbuser-d5974fcb-9365-4297-91a8-7a05bf670231-attr-10-name" class="er entityLabel">chg_nm</text><rect height="22.091796875" width="21.5625" y="222.82617282867432" x="119.46875" class="er attributeBoxEven"/><text style="dominant-baseline: middle; font-size: 10.2px;" transform="translate(124.46875,233.87207126617432)" y="0" x="0" id="text-entity-tbuser-d5974fcb-9365-4297-91a8-7a05bf670231-attr-10-key" class="er entityLabel"/><rect height="22.091796875" width="53.671875" y="244.91796970367432" x="0" class="er attributeBoxOdd"/><text style="dominant-baseline: middle; font-size: 10.2px;" transform="translate(5,255.96386814117432)" y="0" x="0" id="text-entity-tbuser-d5974fcb-9365-4297-91a8-7a05bf670231-attr-11-type" class="er entityLabel">DateTime</text><rect height="22.091796875" width="65.796875" y="244.91796970367432" x="53.671875" class="er attributeBoxOdd"/><text style="dominant-baseline: middle; font-size: 10.2px;" transform="translate(58.671875,255.96386814117432)" y="0" x="0" id="text-entity-tbuser-d5974fcb-9365-4297-91a8-7a05bf670231-attr-11-name" class="er entityLabel">chg_dt</text><rect height="22.091796875" width="21.5625" y="244.91796970367432" x="119.46875" class="er attributeBoxOdd"/><text style="dominant-baseline: middle; font-size: 10.2px;" transform="translate(124.46875,255.96386814117432)" y="0" x="0" id="text-entity-tbuser-d5974fcb-9365-4297-91a8-7a05bf670231-attr-11-key" class="er entityLabel"/><rect height="22.091796875" width="53.671875" y="267.0097665786743" x="0" class="er attributeBoxEven"/><text style="dominant-baseline: middle; font-size: 10.2px;" transform="translate(5,278.0556650161743)" y="0" x="0" id="text-entity-tbuser-d5974fcb-9365-4297-91a8-7a05bf670231-attr-12-type" class="er entityLabel">YesOrNo</text><rect height="22.091796875" width="65.796875" y="267.0097665786743" x="53.671875" class="er attributeBoxEven"/><text style="dominant-baseline: middle; font-size: 10.2px;" transform="translate(58.671875,278.0556650161743)" y="0" x="0" id="text-entity-tbuser-d5974fcb-9365-4297-91a8-7a05bf670231-attr-12-name" class="er entityLabel">user_use_yn</text><rect height="22.091796875" width="21.5625" y="267.0097665786743" x="119.46875" class="er attributeBoxEven"/><text style="dominant-baseline: middle; font-size: 10.2px;" transform="translate(124.46875,278.0556650161743)" y="0" x="0" id="text-entity-tbuser-d5974fcb-9365-4297-91a8-7a05bf670231-attr-12-key" class="er entityLabel"/></g><g transform="translate(231.78125,20 )" id="entity-tbuserrolemapp-90d1a523-7968-49af-87d1-a7150563c276"><rect height="90.275390625" width="133.78125" y="0" x="0" class="er entityBox"/><text style="dominant-baseline: middle; text-anchor: middle; font-size: 12px;" transform="translate(66.890625,12)" y="0" x="0" id="text-entity-tbuserrolemapp-90d1a523-7968-49af-87d1-a7150563c276" class="er entityLabel">tb_user_role_mapp</text><rect height="22.091796875" width="65.3203125" y="24" x="0" class="er attributeBoxOdd"/><text style="dominant-baseline: middle; font-size: 10.2px;" transform="translate(5,35.0458984375)" y="0" x="0" id="text-entity-tbuserrolemapp-90d1a523-7968-49af-87d1-a7150563c276-attr-1-type" class="er entityLabel">Int</text><rect height="22.091796875" width="68.4609375" y="24" x="65.3203125" class="er attributeBoxOdd"/><text style="dominant-baseline: middle; font-size: 10.2px;" transform="translate(70.3203125,35.0458984375)" y="0" x="0" id="text-entity-tbuserrolemapp-90d1a523-7968-49af-87d1-a7150563c276-attr-1-name" class="er entityLabel">user_seq</text><rect height="22.091796875" width="65.3203125" y="46.091796875" x="0" class="er attributeBoxEven"/><text style="dominant-baseline: middle; font-size: 10.2px;" transform="translate(5,57.1376953125)" y="0" x="0" id="text-entity-tbuserrolemapp-90d1a523-7968-49af-87d1-a7150563c276-attr-2-type" class="er entityLabel">Int</text><rect height="22.091796875" width="68.4609375" y="46.091796875" x="65.3203125" class="er attributeBoxEven"/><text style="dominant-baseline: middle; font-size: 10.2px;" transform="translate(70.3203125,57.1376953125)" y="0" x="0" id="text-entity-tbuserrolemapp-90d1a523-7968-49af-87d1-a7150563c276-attr-2-name" class="er entityLabel">role_seq</text><rect height="22.091796875" width="65.3203125" y="68.18359375" x="0" class="er attributeBoxOdd"/><text style="dominant-baseline: middle; font-size: 10.2px;" transform="translate(5,79.2294921875)" y="0" x="0" id="text-entity-tbuserrolemapp-90d1a523-7968-49af-87d1-a7150563c276-attr-3-type" class="er entityLabel">AppRole</text><rect height="22.091796875" width="68.4609375" y="68.18359375" x="65.3203125" class="er attributeBoxOdd"/><text style="dominant-baseline: middle; font-size: 10.2px;" transform="translate(70.3203125,79.2294921875)" y="0" x="0" id="text-entity-tbuserrolemapp-90d1a523-7968-49af-87d1-a7150563c276-attr-3-name" class="er entityLabel">app_role</text></g><g transform="translate(469.1875,232.3671875 )" id="entity-tbrole-7725721b-e465-48c8-b2fd-d928c2c4553e"><rect height="244.91796970367432" width="139.8125" y="0" x="0" class="er entityBox"/><text style="dominant-baseline: middle; text-anchor: middle; font-size: 12px;" transform="translate(69.90625,12)" y="0" x="0" id="text-entity-tbrole-7725721b-e465-48c8-b2fd-d928c2c4553e" class="er entityLabel">tb_role</text><rect height="22.091796875" width="53.671875" y="24" x="0" class="er attributeBoxOdd"/><text style="dominant-baseline: middle; font-size: 10.2px;" transform="translate(5,35.0458984375)" y="0" x="0" id="text-entity-tbrole-7725721b-e465-48c8-b2fd-d928c2c4553e-attr-1-type" class="er entityLabel">Int</text><rect height="22.091796875" width="64.578125" y="24" x="53.671875" class="er attributeBoxOdd"/><text style="dominant-baseline: middle; font-size: 10.2px;" transform="translate(58.671875,35.0458984375)" y="0" x="0" id="text-entity-tbrole-7725721b-e465-48c8-b2fd-d928c2c4553e-attr-1-name" class="er entityLabel">role_seq</text><rect height="22.091796875" width="21.5625" y="24" x="118.25" class="er attributeBoxOdd"/><text style="dominant-baseline: middle; font-size: 10.2px;" transform="translate(123.25,35.0458984375)" y="0" x="0" id="text-entity-tbrole-7725721b-e465-48c8-b2fd-d928c2c4553e-attr-1-key" class="er entityLabel">PK</text><rect height="22.091796875" width="53.671875" y="46.091796875" x="0" class="er attributeBoxEven"/><text style="dominant-baseline: middle; font-size: 10.2px;" transform="translate(5,57.1376953125)" y="0" x="0" id="text-entity-tbrole-7725721b-e465-48c8-b2fd-d928c2c4553e-attr-2-type" class="er entityLabel">String</text><rect height="22.091796875" width="64.578125" y="46.091796875" x="53.671875" class="er attributeBoxEven"/><text style="dominant-baseline: middle; font-size: 10.2px;" transform="translate(58.671875,57.1376953125)" y="0" x="0" id="text-entity-tbrole-7725721b-e465-48c8-b2fd-d928c2c4553e-attr-2-name" class="er entityLabel">role_id</text><rect height="22.091796875" width="21.5625" y="46.091796875" x="118.25" class="er attributeBoxEven"/><text style="dominant-baseline: middle; font-size: 10.2px;" transform="translate(123.25,57.1376953125)" y="0" x="0" id="text-entity-tbrole-7725721b-e465-48c8-b2fd-d928c2c4553e-attr-2-key" class="er entityLabel"/><rect height="22.091796875" width="53.671875" y="68.18359375" x="0" class="er attributeBoxOdd"/><text style="dominant-baseline: middle; font-size: 10.2px;" transform="translate(5,79.2294921875)" y="0" x="0" id="text-entity-tbrole-7725721b-e465-48c8-b2fd-d928c2c4553e-attr-3-type" class="er entityLabel">String</text><rect height="22.091796875" width="64.578125" y="68.18359375" x="53.671875" class="er attributeBoxOdd"/><text style="dominant-baseline: middle; font-size: 10.2px;" transform="translate(58.671875,79.2294921875)" y="0" x="0" id="text-entity-tbrole-7725721b-e465-48c8-b2fd-d928c2c4553e-attr-3-name" class="er entityLabel">role_nm</text><rect height="22.091796875" width="21.5625" y="68.18359375" x="118.25" class="er attributeBoxOdd"/><text style="dominant-baseline: middle; font-size: 10.2px;" transform="translate(123.25,79.2294921875)" y="0" x="0" id="text-entity-tbrole-7725721b-e465-48c8-b2fd-d928c2c4553e-attr-3-key" class="er entityLabel"/><rect height="22.091796875" width="53.671875" y="90.275390625" x="0" class="er attributeBoxEven"/><text style="dominant-baseline: middle; font-size: 10.2px;" transform="translate(5,101.3212890625)" y="0" x="0" id="text-entity-tbrole-7725721b-e465-48c8-b2fd-d928c2c4553e-attr-4-type" class="er entityLabel">YesOrNo</text><rect height="22.091796875" width="64.578125" y="90.275390625" x="53.671875" class="er attributeBoxEven"/><text style="dominant-baseline: middle; font-size: 10.2px;" transform="translate(58.671875,101.3212890625)" y="0" x="0" id="text-entity-tbrole-7725721b-e465-48c8-b2fd-d928c2c4553e-attr-4-name" class="er entityLabel">role_use_yn</text><rect height="22.091796875" width="21.5625" y="90.275390625" x="118.25" class="er attributeBoxEven"/><text style="dominant-baseline: middle; font-size: 10.2px;" transform="translate(123.25,101.3212890625)" y="0" x="0" id="text-entity-tbrole-7725721b-e465-48c8-b2fd-d928c2c4553e-attr-4-key" class="er entityLabel"/><rect height="22.091797828674316" width="53.671875" y="112.3671875" x="0" class="er attributeBoxOdd"/><text style="dominant-baseline: middle; font-size: 10.2px;" transform="translate(5,123.41308641433716)" y="0" x="0" id="text-entity-tbrole-7725721b-e465-48c8-b2fd-d928c2c4553e-attr-5-type" class="er entityLabel">String</text><rect height="22.091797828674316" width="64.578125" y="112.3671875" x="53.671875" class="er attributeBoxOdd"/><text style="dominant-baseline: middle; font-size: 10.2px;" transform="translate(58.671875,123.41308641433716)" y="0" x="0" id="text-entity-tbrole-7725721b-e465-48c8-b2fd-d928c2c4553e-attr-5-name" class="er entityLabel">reg_id</text><rect height="22.091797828674316" width="21.5625" y="112.3671875" x="118.25" class="er attributeBoxOdd"/><text style="dominant-baseline: middle; font-size: 10.2px;" transform="translate(123.25,123.41308641433716)" y="0" x="0" id="text-entity-tbrole-7725721b-e465-48c8-b2fd-d928c2c4553e-attr-5-key" class="er entityLabel"/><rect height="22.091796875" width="53.671875" y="134.45898532867432" x="0" class="er attributeBoxEven"/><text style="dominant-baseline: middle; font-size: 10.2px;" transform="translate(5,145.50488376617432)" y="0" x="0" id="text-entity-tbrole-7725721b-e465-48c8-b2fd-d928c2c4553e-attr-6-type" class="er entityLabel">String</text><rect height="22.091796875" width="64.578125" y="134.45898532867432" x="53.671875" class="er attributeBoxEven"/><text style="dominant-baseline: middle; font-size: 10.2px;" transform="translate(58.671875,145.50488376617432)" y="0" x="0" id="text-entity-tbrole-7725721b-e465-48c8-b2fd-d928c2c4553e-attr-6-name" class="er entityLabel">reg_nm</text><rect height="22.091796875" width="21.5625" y="134.45898532867432" x="118.25" class="er attributeBoxEven"/><text style="dominant-baseline: middle; font-size: 10.2px;" transform="translate(123.25,145.50488376617432)" y="0" x="0" id="text-entity-tbrole-7725721b-e465-48c8-b2fd-d928c2c4553e-attr-6-key" class="er entityLabel"/><rect height="22.091796875" width="53.671875" y="156.55078220367432" x="0" class="er attributeBoxOdd"/><text style="dominant-baseline: middle; font-size: 10.2px;" transform="translate(5,167.59668064117432)" y="0" x="0" id="text-entity-tbrole-7725721b-e465-48c8-b2fd-d928c2c4553e-attr-7-type" class="er entityLabel">DateTime</text><rect height="22.091796875" width="64.578125" y="156.55078220367432" x="53.671875" class="er attributeBoxOdd"/><text style="dominant-baseline: middle; font-size: 10.2px;" transform="translate(58.671875,167.59668064117432)" y="0" x="0" id="text-entity-tbrole-7725721b-e465-48c8-b2fd-d928c2c4553e-attr-7-name" class="er entityLabel">reg_dt</text><rect height="22.091796875" width="21.5625" y="156.55078220367432" x="118.25" class="er attributeBoxOdd"/><text style="dominant-baseline: middle; font-size: 10.2px;" transform="translate(123.25,167.59668064117432)" y="0" x="0" id="text-entity-tbrole-7725721b-e465-48c8-b2fd-d928c2c4553e-attr-7-key" class="er entityLabel"/><rect height="22.091796875" width="53.671875" y="178.64257907867432" x="0" class="er attributeBoxEven"/><text style="dominant-baseline: middle; font-size: 10.2px;" transform="translate(5,189.68847751617432)" y="0" x="0" id="text-entity-tbrole-7725721b-e465-48c8-b2fd-d928c2c4553e-attr-8-type" class="er entityLabel">String</text><rect height="22.091796875" width="64.578125" y="178.64257907867432" x="53.671875" class="er attributeBoxEven"/><text style="dominant-baseline: middle; font-size: 10.2px;" transform="translate(58.671875,189.68847751617432)" y="0" x="0" id="text-entity-tbrole-7725721b-e465-48c8-b2fd-d928c2c4553e-attr-8-name" class="er entityLabel">chg_id</text><rect height="22.091796875" width="21.5625" y="178.64257907867432" x="118.25" class="er attributeBoxEven"/><text style="dominant-baseline: middle; font-size: 10.2px;" transform="translate(123.25,189.68847751617432)" y="0" x="0" id="text-entity-tbrole-7725721b-e465-48c8-b2fd-d928c2c4553e-attr-8-key" class="er entityLabel"/><rect height="22.091796875" width="53.671875" y="200.73437595367432" x="0" class="er attributeBoxOdd"/><text style="dominant-baseline: middle; font-size: 10.2px;" transform="translate(5,211.78027439117432)" y="0" x="0" id="text-entity-tbrole-7725721b-e465-48c8-b2fd-d928c2c4553e-attr-9-type" class="er entityLabel">String</text><rect height="22.091796875" width="64.578125" y="200.73437595367432" x="53.671875" class="er attributeBoxOdd"/><text style="dominant-baseline: middle; font-size: 10.2px;" transform="translate(58.671875,211.78027439117432)" y="0" x="0" id="text-entity-tbrole-7725721b-e465-48c8-b2fd-d928c2c4553e-attr-9-name" class="er entityLabel">chg_nm</text><rect height="22.091796875" width="21.5625" y="200.73437595367432" x="118.25" class="er attributeBoxOdd"/><text style="dominant-baseline: middle; font-size: 10.2px;" transform="translate(123.25,211.78027439117432)" y="0" x="0" id="text-entity-tbrole-7725721b-e465-48c8-b2fd-d928c2c4553e-attr-9-key" class="er entityLabel"/><rect height="22.091796875" width="53.671875" y="222.82617282867432" x="0" class="er attributeBoxEven"/><text style="dominant-baseline: middle; font-size: 10.2px;" transform="translate(5,233.87207126617432)" y="0" x="0" id="text-entity-tbrole-7725721b-e465-48c8-b2fd-d928c2c4553e-attr-10-type" class="er entityLabel">DateTime</text><rect height="22.091796875" width="64.578125" y="222.82617282867432" x="53.671875" class="er attributeBoxEven"/><text style="dominant-baseline: middle; font-size: 10.2px;" transform="translate(58.671875,233.87207126617432)" y="0" x="0" id="text-entity-tbrole-7725721b-e465-48c8-b2fd-d928c2c4553e-attr-10-name" class="er entityLabel">chg_dt</text><rect height="22.091796875" width="21.5625" y="222.82617282867432" x="118.25" class="er attributeBoxEven"/><text style="dominant-baseline: middle; font-size: 10.2px;" transform="translate(123.25,233.87207126617432)" y="0" x="0" id="text-entity-tbrole-7725721b-e465-48c8-b2fd-d928c2c4553e-attr-10-key" class="er entityLabel"/></g><rect height="14" width="99.671875" y="552.1881713867188" x="269.0401611328125" class="er relationshipLabelBox"/><text style="text-anchor: middle; dominant-baseline: middle; font-size: 12px;" y="559.1881713867188" x="318.8760986328125" id="rel1" class="er relationshipLabel">enum:user_use_yn</text><rect height="14" width="81.1875" y="161.07366943359375" x="64.47661590576172" class="er relationshipLabelBox"/><text style="text-anchor: middle; dominant-baseline: middle; font-size: 12px;" y="168.07366943359375" x="105.07036590576172" id="rel2" class="er relationshipLabel">enum:app_role</text><rect height="14" width="26.046875" y="132.41661071777344" x="463.4484558105469" class="er relationshipLabelBox"/><text style="text-anchor: middle; dominant-baseline: middle; font-size: 12px;" y="139.41661071777344" x="476.4718933105469" id="rel3" class="er relationshipLabel">roles</text><rect height="14" width="27.484375" y="153.275390625" x="284.9296875" class="er relationshipLabelBox"/><text style="text-anchor: middle; dominant-baseline: middle; font-size: 12px;" y="160.275390625" x="298.671875" id="rel4" class="er relationshipLabel">users</text><rect height="14" width="98.234375" y="543.1199951171875" x="475.23712158203125" class="er relationshipLabelBox"/><text style="text-anchor: middle; dominant-baseline: middle; font-size: 12px;" y="550.1199951171875" x="524.3543090820312" id="rel5" class="er relationshipLabel">enum:role_use_yn</text></svg>